<mxfile host="app.diagrams.net" agent="Mozilla/5.0 (Windows NT 10.0; Win64; x64) AppleWebKit/537.36 (KHTML, like Gecko) Chrome/134.0.0.0 Safari/537.36" version="26.2.4">
  <diagram id="spFs5ViH503UC8_pctQy" name="Page-1">
    <mxGraphModel dx="2546" dy="1070" grid="1" gridSize="10" guides="1" tooltips="1" connect="1" arrows="1" fold="1" page="1" pageScale="1" pageWidth="850" pageHeight="1100" math="0" shadow="0">
      <root>
        <mxCell id="0" />
        <mxCell id="1" parent="0" />
        <mxCell id="QQZs3XPjNCJl7_IexciW-20" value="" style="edgeStyle=orthogonalEdgeStyle;rounded=0;orthogonalLoop=1;jettySize=auto;html=1;" edge="1" parent="1" source="QQZs3XPjNCJl7_IexciW-1" target="QQZs3XPjNCJl7_IexciW-2">
          <mxGeometry relative="1" as="geometry" />
        </mxCell>
        <mxCell id="QQZs3XPjNCJl7_IexciW-1" value="Start" style="ellipse;whiteSpace=wrap;html=1;" vertex="1" parent="1">
          <mxGeometry x="190" y="120" width="120" height="80" as="geometry" />
        </mxCell>
        <mxCell id="QQZs3XPjNCJl7_IexciW-25" value="" style="edgeStyle=orthogonalEdgeStyle;rounded=0;orthogonalLoop=1;jettySize=auto;html=1;" edge="1" parent="1" source="QQZs3XPjNCJl7_IexciW-2" target="QQZs3XPjNCJl7_IexciW-4">
          <mxGeometry relative="1" as="geometry" />
        </mxCell>
        <mxCell id="QQZs3XPjNCJl7_IexciW-2" value="Initialize&lt;br/&gt;angles_deg array (32 angles)&lt;br/&gt;z_displacement_values (16 values)&lt;br/&gt;j=0 (z index), k= (angle index),&lt;br/&gt;a=1, processed=0&amp;nbsp;" style="rounded=0;whiteSpace=wrap;html=1;" vertex="1" parent="1">
          <mxGeometry x="10" y="245" width="220" height="120" as="geometry" />
        </mxCell>
        <mxCell id="QQZs3XPjNCJl7_IexciW-3" value="Set up serial connection (COM3,&lt;br/&gt;115200 Baud)&lt;br/&gt;Reset buffers Open &quot;tof_rader.xyz&quot; for writing&amp;nbsp;" style="rounded=0;whiteSpace=wrap;html=1;" vertex="1" parent="1">
          <mxGeometry x="310" y="250" width="210" height="115" as="geometry" />
        </mxCell>
        <mxCell id="QQZs3XPjNCJl7_IexciW-30" value="" style="edgeStyle=orthogonalEdgeStyle;rounded=0;orthogonalLoop=1;jettySize=auto;html=1;" edge="1" parent="1" source="QQZs3XPjNCJl7_IexciW-4" target="QQZs3XPjNCJl7_IexciW-5">
          <mxGeometry relative="1" as="geometry" />
        </mxCell>
        <mxCell id="QQZs3XPjNCJl7_IexciW-31" value="TRUE" style="edgeLabel;html=1;align=center;verticalAlign=middle;resizable=0;points=[];" vertex="1" connectable="0" parent="QQZs3XPjNCJl7_IexciW-30">
          <mxGeometry x="-0.3171" y="-2" relative="1" as="geometry">
            <mxPoint as="offset" />
          </mxGeometry>
        </mxCell>
        <mxCell id="QQZs3XPjNCJl7_IexciW-4" value="Wait for user input" style="rhombus;whiteSpace=wrap;html=1;" vertex="1" parent="1">
          <mxGeometry x="150" y="420" width="200" height="160" as="geometry" />
        </mxCell>
        <mxCell id="QQZs3XPjNCJl7_IexciW-37" value="" style="edgeStyle=orthogonalEdgeStyle;rounded=0;orthogonalLoop=1;jettySize=auto;html=1;" edge="1" parent="1" source="QQZs3XPjNCJl7_IexciW-5" target="QQZs3XPjNCJl7_IexciW-6">
          <mxGeometry relative="1" as="geometry" />
        </mxCell>
        <mxCell id="QQZs3XPjNCJl7_IexciW-57" value="TRUE" style="edgeLabel;html=1;align=center;verticalAlign=middle;resizable=0;points=[];" vertex="1" connectable="0" parent="QQZs3XPjNCJl7_IexciW-37">
          <mxGeometry x="-0.3769" relative="1" as="geometry">
            <mxPoint as="offset" />
          </mxGeometry>
        </mxCell>
        <mxCell id="QQZs3XPjNCJl7_IexciW-5" value="While (processed &amp;lt; layers)" style="rhombus;whiteSpace=wrap;html=1;" vertex="1" parent="1">
          <mxGeometry x="167.5" y="620" width="165" height="130" as="geometry" />
        </mxCell>
        <mxCell id="QQZs3XPjNCJl7_IexciW-38" value="" style="edgeStyle=orthogonalEdgeStyle;rounded=0;orthogonalLoop=1;jettySize=auto;html=1;" edge="1" parent="1" source="QQZs3XPjNCJl7_IexciW-6" target="QQZs3XPjNCJl7_IexciW-7">
          <mxGeometry relative="1" as="geometry" />
        </mxCell>
        <mxCell id="QQZs3XPjNCJl7_IexciW-6" value="Read serial data line&amp;nbsp;" style="rounded=0;whiteSpace=wrap;html=1;" vertex="1" parent="1">
          <mxGeometry x="175" y="790" width="150" height="80" as="geometry" />
        </mxCell>
        <mxCell id="QQZs3XPjNCJl7_IexciW-39" value="" style="edgeStyle=orthogonalEdgeStyle;rounded=0;orthogonalLoop=1;jettySize=auto;html=1;" edge="1" parent="1" source="QQZs3XPjNCJl7_IexciW-7" target="QQZs3XPjNCJl7_IexciW-9">
          <mxGeometry relative="1" as="geometry" />
        </mxCell>
        <mxCell id="QQZs3XPjNCJl7_IexciW-7" value="Convert to Cartesian Coordinates&amp;nbsp;" style="rounded=0;whiteSpace=wrap;html=1;" vertex="1" parent="1">
          <mxGeometry x="177.5" y="900" width="145" height="70" as="geometry" />
        </mxCell>
        <mxCell id="QQZs3XPjNCJl7_IexciW-8" value="X = cos(angle)*distance" style="rounded=0;whiteSpace=wrap;html=1;" vertex="1" parent="1">
          <mxGeometry x="42.5" y="1020" width="120" height="60" as="geometry" />
        </mxCell>
        <mxCell id="QQZs3XPjNCJl7_IexciW-45" value="" style="edgeStyle=orthogonalEdgeStyle;rounded=0;orthogonalLoop=1;jettySize=auto;html=1;" edge="1" parent="1" source="QQZs3XPjNCJl7_IexciW-9" target="QQZs3XPjNCJl7_IexciW-11">
          <mxGeometry relative="1" as="geometry" />
        </mxCell>
        <mxCell id="QQZs3XPjNCJl7_IexciW-9" value="Y =&lt;br/&gt;sin(angle)*distance&lt;div&gt;&lt;br/&gt;&lt;/div&gt;" style="rounded=0;whiteSpace=wrap;html=1;" vertex="1" parent="1">
          <mxGeometry x="190" y="1020" width="120" height="60" as="geometry" />
        </mxCell>
        <mxCell id="QQZs3XPjNCJl7_IexciW-10" value="Z =&amp;nbsp;z_displacement_values[ j ]" style="rounded=0;whiteSpace=wrap;html=1;" vertex="1" parent="1">
          <mxGeometry x="335" y="1020" width="180" height="60" as="geometry" />
        </mxCell>
        <mxCell id="QQZs3XPjNCJl7_IexciW-46" value="" style="edgeStyle=orthogonalEdgeStyle;rounded=0;orthogonalLoop=1;jettySize=auto;html=1;" edge="1" parent="1" source="QQZs3XPjNCJl7_IexciW-11" target="QQZs3XPjNCJl7_IexciW-12">
          <mxGeometry relative="1" as="geometry" />
        </mxCell>
        <mxCell id="QQZs3XPjNCJl7_IexciW-11" value="Write the X Y Z value to the &quot;tof_radar.xyz&quot; file" style="rounded=0;whiteSpace=wrap;html=1;" vertex="1" parent="1">
          <mxGeometry x="165" y="1125" width="170" height="100" as="geometry" />
        </mxCell>
        <mxCell id="QQZs3XPjNCJl7_IexciW-51" value="" style="edgeStyle=orthogonalEdgeStyle;rounded=0;orthogonalLoop=1;jettySize=auto;html=1;" edge="1" parent="1" source="QQZs3XPjNCJl7_IexciW-12" target="QQZs3XPjNCJl7_IexciW-50">
          <mxGeometry relative="1" as="geometry" />
        </mxCell>
        <mxCell id="QQZs3XPjNCJl7_IexciW-53" value="" style="edgeStyle=orthogonalEdgeStyle;rounded=0;orthogonalLoop=1;jettySize=auto;html=1;" edge="1" parent="1" source="QQZs3XPjNCJl7_IexciW-12" target="QQZs3XPjNCJl7_IexciW-15">
          <mxGeometry relative="1" as="geometry" />
        </mxCell>
        <mxCell id="QQZs3XPjNCJl7_IexciW-12" value="processed += 1&lt;br/&gt;a += 1&lt;br/&gt;k += 1&amp;nbsp;" style="rounded=0;whiteSpace=wrap;html=1;" vertex="1" parent="1">
          <mxGeometry x="182.5" y="1240" width="135" height="80" as="geometry" />
        </mxCell>
        <mxCell id="QQZs3XPjNCJl7_IexciW-14" value="j += 1&lt;br/&gt;k = -1&amp;nbsp;" style="rounded=0;whiteSpace=wrap;html=1;" vertex="1" parent="1">
          <mxGeometry x="402.5" y="1370" width="120" height="60" as="geometry" />
        </mxCell>
        <mxCell id="QQZs3XPjNCJl7_IexciW-54" value="" style="edgeStyle=orthogonalEdgeStyle;rounded=0;orthogonalLoop=1;jettySize=auto;html=1;" edge="1" parent="1" source="QQZs3XPjNCJl7_IexciW-15" target="QQZs3XPjNCJl7_IexciW-16">
          <mxGeometry relative="1" as="geometry" />
        </mxCell>
        <mxCell id="QQZs3XPjNCJl7_IexciW-15" value="Point cloud&lt;br/&gt;Processing&amp;nbsp;" style="rounded=0;whiteSpace=wrap;html=1;" vertex="1" parent="1">
          <mxGeometry x="190" y="1370" width="120" height="60" as="geometry" />
        </mxCell>
        <mxCell id="QQZs3XPjNCJl7_IexciW-16" value="Read XYZ file into open3D" style="rounded=0;whiteSpace=wrap;html=1;" vertex="1" parent="1">
          <mxGeometry x="190" y="1460" width="120" height="60" as="geometry" />
        </mxCell>
        <mxCell id="QQZs3XPjNCJl7_IexciW-56" value="" style="edgeStyle=orthogonalEdgeStyle;rounded=0;orthogonalLoop=1;jettySize=auto;html=1;" edge="1" parent="1" source="QQZs3XPjNCJl7_IexciW-18" target="QQZs3XPjNCJl7_IexciW-19">
          <mxGeometry relative="1" as="geometry" />
        </mxCell>
        <mxCell id="QQZs3XPjNCJl7_IexciW-18" value="Create line connections&amp;nbsp;" style="rounded=0;whiteSpace=wrap;html=1;" vertex="1" parent="1">
          <mxGeometry x="440" y="645" width="150" height="80" as="geometry" />
        </mxCell>
        <mxCell id="QQZs3XPjNCJl7_IexciW-61" value="" style="edgeStyle=orthogonalEdgeStyle;rounded=0;orthogonalLoop=1;jettySize=auto;html=1;" edge="1" parent="1" source="QQZs3XPjNCJl7_IexciW-19" target="QQZs3XPjNCJl7_IexciW-60">
          <mxGeometry relative="1" as="geometry" />
        </mxCell>
        <mxCell id="QQZs3XPjNCJl7_IexciW-19" value="Close serial connection and print &quot;Done&quot;" style="rounded=0;whiteSpace=wrap;html=1;" vertex="1" parent="1">
          <mxGeometry x="455" y="785" width="120" height="60" as="geometry" />
        </mxCell>
        <mxCell id="QQZs3XPjNCJl7_IexciW-27" value="" style="edgeStyle=orthogonalEdgeStyle;rounded=0;orthogonalLoop=1;jettySize=auto;html=1;exitX=0.5;exitY=1;exitDx=0;exitDy=0;entryX=0.5;entryY=0;entryDx=0;entryDy=0;" edge="1" parent="1" source="QQZs3XPjNCJl7_IexciW-3" target="QQZs3XPjNCJl7_IexciW-4">
          <mxGeometry relative="1" as="geometry">
            <mxPoint x="310" y="400" as="sourcePoint" />
            <mxPoint x="440" y="455" as="targetPoint" />
          </mxGeometry>
        </mxCell>
        <mxCell id="QQZs3XPjNCJl7_IexciW-29" value="" style="edgeStyle=orthogonalEdgeStyle;rounded=0;orthogonalLoop=1;jettySize=auto;html=1;entryX=0.5;entryY=0;entryDx=0;entryDy=0;" edge="1" parent="1" target="QQZs3XPjNCJl7_IexciW-3">
          <mxGeometry relative="1" as="geometry">
            <mxPoint x="250" y="221" as="sourcePoint" />
            <mxPoint x="130" y="255" as="targetPoint" />
          </mxGeometry>
        </mxCell>
        <mxCell id="QQZs3XPjNCJl7_IexciW-33" value="" style="endArrow=none;html=1;rounded=0;exitX=1;exitY=0.5;exitDx=0;exitDy=0;" edge="1" parent="1" source="QQZs3XPjNCJl7_IexciW-4">
          <mxGeometry width="50" height="50" relative="1" as="geometry">
            <mxPoint x="290" y="560" as="sourcePoint" />
            <mxPoint x="380" y="500" as="targetPoint" />
          </mxGeometry>
        </mxCell>
        <mxCell id="QQZs3XPjNCJl7_IexciW-34" value="" style="endArrow=none;html=1;rounded=0;" edge="1" parent="1">
          <mxGeometry width="50" height="50" relative="1" as="geometry">
            <mxPoint x="380" y="420" as="sourcePoint" />
            <mxPoint x="380" y="500" as="targetPoint" />
          </mxGeometry>
        </mxCell>
        <mxCell id="QQZs3XPjNCJl7_IexciW-36" value="FALSE" style="edgeLabel;html=1;align=center;verticalAlign=middle;resizable=0;points=[];" vertex="1" connectable="0" parent="QQZs3XPjNCJl7_IexciW-34">
          <mxGeometry x="0.1917" y="1" relative="1" as="geometry">
            <mxPoint as="offset" />
          </mxGeometry>
        </mxCell>
        <mxCell id="QQZs3XPjNCJl7_IexciW-35" value="" style="endArrow=classic;html=1;rounded=0;entryX=0.5;entryY=0;entryDx=0;entryDy=0;" edge="1" parent="1" target="QQZs3XPjNCJl7_IexciW-4">
          <mxGeometry width="50" height="50" relative="1" as="geometry">
            <mxPoint x="380" y="420" as="sourcePoint" />
            <mxPoint x="340" y="510" as="targetPoint" />
          </mxGeometry>
        </mxCell>
        <mxCell id="QQZs3XPjNCJl7_IexciW-40" value="" style="edgeStyle=orthogonalEdgeStyle;rounded=0;orthogonalLoop=1;jettySize=auto;html=1;exitX=1;exitY=0.5;exitDx=0;exitDy=0;entryX=0.5;entryY=0;entryDx=0;entryDy=0;" edge="1" parent="1" source="QQZs3XPjNCJl7_IexciW-7" target="QQZs3XPjNCJl7_IexciW-10">
          <mxGeometry relative="1" as="geometry">
            <mxPoint x="535" y="900" as="sourcePoint" />
            <mxPoint x="440" y="960" as="targetPoint" />
            <Array as="points">
              <mxPoint x="425" y="935" />
            </Array>
          </mxGeometry>
        </mxCell>
        <mxCell id="QQZs3XPjNCJl7_IexciW-41" value="" style="edgeStyle=orthogonalEdgeStyle;rounded=0;orthogonalLoop=1;jettySize=auto;html=1;exitX=0;exitY=0.5;exitDx=0;exitDy=0;entryX=0.5;entryY=0;entryDx=0;entryDy=0;" edge="1" parent="1" source="QQZs3XPjNCJl7_IexciW-7" target="QQZs3XPjNCJl7_IexciW-8">
          <mxGeometry relative="1" as="geometry">
            <mxPoint x="162.5" y="920.04" as="sourcePoint" />
            <mxPoint x="60" y="950" as="targetPoint" />
          </mxGeometry>
        </mxCell>
        <mxCell id="QQZs3XPjNCJl7_IexciW-42" value="" style="edgeStyle=orthogonalEdgeStyle;rounded=0;orthogonalLoop=1;jettySize=auto;html=1;exitX=0.5;exitY=1;exitDx=0;exitDy=0;entryX=0;entryY=0;entryDx=0;entryDy=0;" edge="1" parent="1" source="QQZs3XPjNCJl7_IexciW-8" target="QQZs3XPjNCJl7_IexciW-11">
          <mxGeometry relative="1" as="geometry">
            <mxPoint x="115" y="1130" as="sourcePoint" />
            <mxPoint x="-50" y="1185" as="targetPoint" />
          </mxGeometry>
        </mxCell>
        <mxCell id="QQZs3XPjNCJl7_IexciW-44" value="" style="edgeStyle=orthogonalEdgeStyle;rounded=0;orthogonalLoop=1;jettySize=auto;html=1;exitX=0.5;exitY=1;exitDx=0;exitDy=0;entryX=1;entryY=0;entryDx=0;entryDy=0;" edge="1" parent="1" source="QQZs3XPjNCJl7_IexciW-10" target="QQZs3XPjNCJl7_IexciW-11">
          <mxGeometry relative="1" as="geometry">
            <mxPoint x="595" y="1162.5" as="sourcePoint" />
            <mxPoint x="430" y="1217.5" as="targetPoint" />
          </mxGeometry>
        </mxCell>
        <mxCell id="QQZs3XPjNCJl7_IexciW-52" value="" style="edgeStyle=orthogonalEdgeStyle;rounded=0;orthogonalLoop=1;jettySize=auto;html=1;" edge="1" parent="1" source="QQZs3XPjNCJl7_IexciW-50" target="QQZs3XPjNCJl7_IexciW-14">
          <mxGeometry relative="1" as="geometry" />
        </mxCell>
        <mxCell id="QQZs3XPjNCJl7_IexciW-59" value="TRUE" style="edgeLabel;html=1;align=center;verticalAlign=middle;resizable=0;points=[];" vertex="1" connectable="0" parent="QQZs3XPjNCJl7_IexciW-52">
          <mxGeometry x="-0.5344" y="1" relative="1" as="geometry">
            <mxPoint as="offset" />
          </mxGeometry>
        </mxCell>
        <mxCell id="QQZs3XPjNCJl7_IexciW-50" value="If (a%32 == 0)&amp;nbsp;" style="rhombus;whiteSpace=wrap;html=1;" vertex="1" parent="1">
          <mxGeometry x="390" y="1225" width="145" height="110" as="geometry" />
        </mxCell>
        <mxCell id="QQZs3XPjNCJl7_IexciW-55" value="" style="edgeStyle=orthogonalEdgeStyle;rounded=0;orthogonalLoop=1;jettySize=auto;html=1;exitX=1;exitY=0.5;exitDx=0;exitDy=0;entryX=0;entryY=0.5;entryDx=0;entryDy=0;" edge="1" parent="1" source="QQZs3XPjNCJl7_IexciW-5" target="QQZs3XPjNCJl7_IexciW-18">
          <mxGeometry relative="1" as="geometry">
            <mxPoint x="322.5" y="680" as="sourcePoint" />
            <mxPoint x="620" y="685" as="targetPoint" />
          </mxGeometry>
        </mxCell>
        <mxCell id="QQZs3XPjNCJl7_IexciW-58" value="FALSE" style="edgeLabel;html=1;align=center;verticalAlign=middle;resizable=0;points=[];" vertex="1" connectable="0" parent="QQZs3XPjNCJl7_IexciW-55">
          <mxGeometry x="-0.2076" y="-2" relative="1" as="geometry">
            <mxPoint as="offset" />
          </mxGeometry>
        </mxCell>
        <mxCell id="QQZs3XPjNCJl7_IexciW-60" value="End" style="ellipse;whiteSpace=wrap;html=1;" vertex="1" parent="1">
          <mxGeometry x="455" y="870" width="120" height="80" as="geometry" />
        </mxCell>
      </root>
    </mxGraphModel>
  </diagram>
</mxfile>
